<?xml version="1.0" standalone="no"?>
<!DOCTYPE svg PUBLIC "-//W3C//DTD SVG 20010904//EN"
 "http://www.w3.org/TR/2001/REC-SVG-20010904/DTD/svg10.dtd">
<svg version="1.0" xmlns="http://www.w3.org/2000/svg"
 width="735.000000pt" height="430.000000pt" viewBox="0 0 735.000000 430.000000"
 preserveAspectRatio="xMidYMid meet">

<g transform="translate(0.000000,430.000000) scale(0.100000,-0.100000)"
fill="#000000" stroke="none">
<path d="M4924 4290 c-12 -4 -35 -25 -53 -46 -27 -33 -31 -46 -31 -94 1 -94
57 -182 96 -149 18 15 18 38 0 45 -18 7 -40 96 -32 129 16 63 88 85 140 44 50
-40 70 -94 71 -194 0 -77 -4 -98 -27 -148 -49 -104 -159 -194 -287 -233 -56
-17 -308 -39 -345 -30 l-26 6 0 108 c0 119 -14 215 -36 250 -10 14 -24 22 -44
22 -48 0 -63 -41 -85 -233 -8 -66 -16 -121 -18 -123 -2 -2 -71 3 -152 13 -120
13 -166 14 -240 5 -147 -17 -311 -95 -363 -171 -48 -72 -8 -91 64 -31 65 54
154 97 239 115 88 18 139 19 295 0 69 -8 131 -15 139 -15 11 0 13 -18 7 -104
-6 -96 -15 -130 -117 -447 -154 -478 -216 -638 -274 -707 -33 -39 -50 -40 -69
-4 -26 51 -37 146 -46 405 -6 173 -14 267 -22 285 -14 28 -51 40 -76 24 -7 -5
-39 -97 -72 -206 -66 -217 -113 -326 -159 -370 -73 -70 -102 18 -136 414 -19
207 -34 267 -71 276 -59 15 -81 -22 -90 -151 -11 -177 -169 -693 -238 -780
-13 -17 -27 -27 -31 -23 -10 10 -23 75 -45 226 -25 176 -37 218 -68 242 -57
46 -86 20 -198 -175 -115 -201 -162 -273 -197 -299 -28 -21 -29 -21 -43 -1
-25 34 -34 87 -34 205 1 186 37 335 99 411 38 46 59 51 110 28 45 -20 81 -69
81 -111 0 -21 5 -28 20 -28 24 0 45 64 36 112 -14 74 -91 147 -171 162 -116
22 -236 -87 -290 -266 -31 -99 -92 -223 -191 -391 -119 -202 -206 -292 -255
-266 -40 21 -153 269 -180 393 -11 51 -11 60 1 64 35 12 109 96 124 139 34
100 12 211 -53 266 -117 98 -251 -89 -251 -349 0 -106 13 -89 -141 -183 l-87
-52 -46 15 c-58 20 -144 20 -216 1 -30 -8 -58 -15 -62 -15 -4 0 10 24 32 52
85 112 165 311 196 492 31 176 1 441 -67 583 -58 122 -158 203 -250 203 -82 0
-143 -51 -217 -180 -116 -202 -157 -396 -141 -670 4 -69 6 -126 4 -128 -1 -2
-37 63 -80 144 -95 182 -115 214 -155 247 -38 32 -61 34 -85 7 -17 -19 -18
-27 -8 -73 18 -86 155 -395 295 -663 140 -270 246 -439 291 -464 27 -14 29
-14 48 9 22 26 22 26 -23 149 -29 81 -29 84 -11 104 24 28 165 93 231 107 54
11 152 15 152 6 0 -3 -36 -39 -80 -81 -155 -149 -197 -249 -131 -315 42 -42
91 -39 196 10 138 64 210 159 210 276 0 38 -7 73 -17 94 -10 19 -18 35 -18 37
0 3 158 104 173 110 10 3 22 -18 42 -73 64 -181 163 -341 236 -378 40 -21 122
-19 168 5 69 35 125 112 218 302 48 98 91 178 95 178 5 0 8 -12 8 -27 0 -36
22 -115 47 -173 44 -100 112 -143 178 -116 39 17 90 86 211 291 l89 150 6
-105 c7 -107 34 -221 69 -290 39 -77 109 -102 164 -59 50 40 117 207 217 547
12 40 24 71 27 68 2 -3 11 -40 18 -82 30 -174 71 -250 150 -286 57 -25 93 -17
147 31 47 42 66 83 133 281 l49 145 6 -170 c7 -183 21 -254 66 -338 46 -83
123 -102 188 -46 53 47 91 138 215 512 62 186 114 336 117 334 2 -3 0 -96 -5
-208 -14 -307 8 -604 54 -719 32 -80 105 -112 163 -71 37 26 70 92 186 366 54
127 101 234 106 239 4 4 10 -27 14 -70 15 -187 55 -316 118 -383 40 -42 100
-70 150 -71 l37 0 0 -88 0 -89 -42 -12 c-79 -23 -241 -99 -588 -274 -297 -150
-369 -182 -517 -231 -187 -61 -219 -67 -208 -38 25 64 29 124 12 190 -30 115
-104 205 -208 251 -201 92 -452 -141 -374 -345 36 -95 120 -161 254 -201 42
-12 72 -22 66 -23 -5 0 -3 -4 5 -10 11 -7 -7 -19 -70 -49 -185 -88 -414 -123
-673 -103 -156 12 -242 24 -620 86 -320 52 -469 66 -706 66 -357 0 -596 -44
-815 -151 -217 -105 -345 -258 -396 -472 -64 -264 25 -501 226 -603 72 -36 83
-39 163 -39 77 0 93 3 153 33 80 39 150 107 223 217 119 180 174 339 126 364
-24 13 -31 5 -31 -39 0 -74 -144 -326 -232 -406 -100 -90 -249 -116 -353 -62
-109 56 -174 157 -195 301 -14 92 -1 198 36 295 113 300 522 476 1109 475 208
0 341 -16 834 -99 395 -66 603 -84 780 -66 251 25 442 94 588 212 34 28 72 50
85 50 38 0 224 48 357 91 172 56 264 98 575 262 259 135 432 217 459 217 10 0
19 -37 31 -125 56 -403 192 -608 393 -593 79 6 127 31 200 105 101 102 155
229 155 363 -2 206 -127 341 -359 386 -43 8 -112 14 -153 12 l-75 -3 2 129 c3
128 3 130 33 165 235 281 391 706 378 1031 -9 212 -73 306 -180 263 -52 -21
-98 -77 -159 -195 -117 -228 -193 -555 -240 -1030 -10 -108 -15 -129 -31 -133
-31 -10 -72 18 -95 65 -34 70 -43 154 -44 440 -1 146 -4 278 -8 294 -3 16 -18
38 -33 49 -26 19 -28 19 -53 3 -33 -22 -42 -46 -54 -147 -11 -87 -62 -219
-202 -524 -75 -162 -123 -245 -148 -253 -21 -7 -9 757 18 1093 11 143 21 266
21 273 0 8 19 12 63 12 83 0 239 25 307 48 163 57 268 140 327 260 37 73 38
79 38 181 -1 91 -4 113 -24 154 -47 95 -143 147 -217 117z m-4222 -777 c57
-55 106 -204 129 -393 26 -215 -27 -505 -131 -715 -46 -92 -131 -215 -149
-215 -4 0 -33 57 -65 128 -65 146 -90 251 -108 450 -27 305 52 617 189 743 39
35 49 40 76 35 17 -4 44 -18 59 -33z m4830 -52 c30 -67 36 -239 13 -368 -44
-244 -142 -474 -280 -653 -26 -34 -49 -60 -50 -58 -11 10 33 308 76 520 49
241 69 320 124 481 28 80 69 142 87 131 5 -3 19 -27 30 -53z m-3971 -652 c24
-34 29 -102 10 -151 -13 -36 -70 -98 -88 -98 -14 0 -15 14 -10 98 5 101 29
182 52 182 8 0 24 -14 36 -31z m-456 -673 c9 -44 -8 -79 -65 -140 -55 -58
-141 -107 -192 -109 -29 -2 -33 1 -36 25 -2 15 4 41 14 59 23 46 108 134 178
186 56 41 60 43 77 27 10 -9 21 -31 24 -48z m4368 -235 c42 -11 89 -28 104
-37 150 -93 191 -263 105 -433 -59 -119 -191 -222 -264 -207 -108 22 -175 172
-207 468 -15 132 -14 215 2 221 32 13 189 6 260 -12z m-2069 -121 c14 -5 47
-28 72 -52 103 -95 125 -219 58 -320 -23 -37 -26 -38 -82 -38 -104 0 -217 43
-265 99 -40 48 -51 93 -37 151 30 123 151 200 254 160z"/>
<path d="M6885 3676 c-102 -45 -199 -273 -242 -571 -13 -83 -17 -190 -17 -430
l-1 -320 -64 -93 c-57 -83 -131 -162 -152 -162 -32 0 -49 168 -58 565 -6 307
-8 333 -27 365 -23 41 -71 53 -95 24 -7 -9 -37 -88 -66 -175 -77 -233 -192
-466 -264 -537 -36 -35 -73 -42 -84 -14 -4 9 -12 152 -17 317 -11 336 -16 365
-67 365 -39 0 -67 -36 -82 -108 -16 -80 -6 -397 15 -477 25 -93 66 -167 104
-188 104 -60 227 77 358 396 l49 118 6 -173 c7 -198 30 -320 81 -430 39 -84
75 -118 128 -118 57 0 139 73 222 198 38 56 48 54 48 -11 1 -80 74 -336 126
-438 51 -102 132 -136 216 -93 62 32 146 172 251 419 97 227 113 284 88 299
-13 8 -23 -8 -76 -129 -112 -257 -202 -413 -276 -480 -38 -34 -42 -35 -58 -21
-10 9 -23 33 -29 54 -26 88 -75 421 -97 668 -6 66 -4 75 34 167 95 228 142
423 162 664 16 199 1 317 -44 348 -26 18 -33 18 -72 1z m70 -296 c-1 -238 -22
-355 -102 -565 -51 -134 -57 -131 -49 25 12 270 64 617 106 715 20 46 22 48
33 30 8 -14 12 -80 12 -205z"/>
<path d="M4735 3405 c-36 -35 -35 -96 1 -124 57 -45 124 -8 124 66 0 41 -37
83 -75 83 -14 0 -37 -11 -50 -25z"/>
</g>
</svg>
